<svg width="22" height="22" viewBox="0 0 22 22" fill="none" xmlns="http://www.w3.org/2000/svg">
<path fill-rule="evenodd" clip-rule="evenodd" d="M22 3.59396C22 2.64094 21.6921 1.72634 21.1428 1.05216C20.5936 0.379224 19.8485 0 19.072 0C15.2051 0 6.79487 0 2.92796 0C2.15155 0 1.40642 0.379224 0.857181 1.05216C0.307938 1.72634 0 2.64094 0 3.59396C0 7.39117 0 14.6088 0 18.406C0 19.3591 0.307938 20.2737 0.857181 20.9478C1.40642 21.6208 2.15155 22 2.92796 22C6.79487 22 15.2051 22 19.072 22C19.8485 22 20.5936 21.6208 21.1428 20.9478C21.6921 20.2737 22 19.3591 22 18.406V3.59396ZM20.1826 3.59396V18.406C20.1826 18.7679 20.0655 19.1149 19.8575 19.3702C19.6496 19.6255 19.3669 19.7693 19.072 19.7693C15.2051 19.7693 6.79487 19.7693 2.92796 19.7693C2.63314 19.7693 2.35044 19.6255 2.14246 19.3702C1.93447 19.1149 1.81735 18.7679 1.81735 18.406C1.81735 14.6088 1.81735 7.39117 1.81735 3.59396C1.81735 3.23209 1.93447 2.88509 2.14246 2.62979C2.35044 2.3745 2.63314 2.23074 2.92796 2.23074C6.79487 2.23074 15.2051 2.23074 19.072 2.23074C19.3669 2.23074 19.6496 2.3745 19.8575 2.62979C20.0655 2.88509 20.1826 3.23209 20.1826 3.59396ZM4.84121 6.49515V17.1965C4.84121 17.8124 4.43433 18.3119 3.93254 18.3119C3.43075 18.3119 3.02387 17.8124 3.02387 17.1965V4.80351C3.02387 4.42801 3.17734 4.07853 3.43278 3.8728C3.6872 3.66584 4.00927 3.63114 4.29096 3.77861L11 7.30814L17.709 3.77861C17.9907 3.63114 18.3128 3.66584 18.5672 3.8728C18.8227 4.07853 18.9761 4.42801 18.9761 4.80351V17.1965C18.9761 17.8124 18.5692 18.3119 18.0675 18.3119C17.5657 18.3119 17.1588 17.8124 17.1588 17.1965V6.49515L11.3584 9.54631C11.1292 9.66652 10.8708 9.66652 10.6416 9.54631L4.84121 6.49515Z" fill="#FEFAE0"/>
</svg>
