<svg width="40" height="40" viewBox="0 0 40 40" fill="none" xmlns="http://www.w3.org/2000/svg">
<rect width="40" height="40" fill="#1E1E1E"/>
<g id="Page">
<rect width="1440" height="4040" transform="translate(-20 -20)" fill="#CCCCCC"/>
<g id="Top Bar" filter="url(#filter0_d_0_1)">
<rect width="1440" height="80" transform="translate(-20 -20)" fill="#292929"/>
<g id="Group 1">
<rect id="Rectangle 4137" width="40" height="40" rx="20" fill="#990100"/>
<path id="Layer 2" d="M25.0188 9.16084C24.4399 8.58204 23.655 8.25689 22.8366 8.25689C22.0181 8.25689 21.2332 8.58204 20.6544 9.16084L20 9.81537C19.4214 10.3943 19.0963 11.1795 19.0963 11.9982C19.0963 12.8168 19.4214 13.602 20 14.181L22.1822 16.3648L16.363 22.1856L14.1798 20.0038C13.8931 19.717 13.5529 19.4896 13.1783 19.3344C12.8038 19.1792 12.4024 19.0993 11.9971 19.0993C11.5917 19.0993 11.1903 19.1792 10.8158 19.3344C10.4412 19.4896 10.101 19.717 9.81434 20.0038L9.15896 20.6583C8.58031 21.2373 8.25525 22.0224 8.25525 22.8411C8.25525 23.6598 8.58031 24.4449 9.15896 25.0239L14.9802 30.8467C15.559 31.4255 16.344 31.7507 17.1624 31.7507C17.9809 31.7507 18.7658 31.4255 19.3446 30.8467L20 30.1922C20.5786 29.6132 20.9037 28.8281 20.9037 28.0094C20.9037 27.1908 20.5786 26.4056 20 25.8266L17.8178 23.6428L23.637 17.822L25.8202 20.0038C26.1069 20.2905 26.4471 20.518 26.8217 20.6732C27.1962 20.8284 27.5976 20.9083 28.0029 20.9083C28.4083 20.9083 28.8097 20.8284 29.1842 20.6732C29.5588 20.518 29.899 20.2905 30.1857 20.0038L30.841 19.3493C31.4197 18.7703 31.7448 17.9851 31.7448 17.1665C31.7448 16.3478 31.4197 15.5626 30.841 14.9837L25.0188 9.16084ZM33.0973 9.81537L30.1857 6.90292C29.6069 6.32475 28.8224 6 28.0045 6C27.1866 6 26.4021 6.32475 25.8233 6.90292L25.669 7.05729C25.9589 7.24404 26.228 7.46141 26.4715 7.70564L32.2948 13.5305C32.539 13.7741 32.7563 14.0432 32.943 14.3333L33.0973 14.1789C33.6753 13.6 34 12.8153 34 11.9971C34 11.179 33.6753 10.3943 33.0973 9.81537ZM7.70518 26.477C7.46101 26.2335 7.2437 25.9643 7.057 25.6743L6.90268 25.8287C6.32466 26.4076 6 27.1923 6 28.0104C6 28.8286 6.32466 29.6133 6.90268 30.1922L9.81434 33.1047C10.3954 33.6783 11.179 34 11.9955 34C12.812 34 13.5956 33.6783 14.1767 33.1047L14.331 32.9503C14.0411 32.7635 13.772 32.5462 13.5285 32.3019L7.70518 26.477Z" fill="#CCCCCC"/>
</g>
</g>
</g>
<defs>
<filter id="filter0_d_0_1" x="-26" y="-26" width="1452" height="92" filterUnits="userSpaceOnUse" color-interpolation-filters="sRGB">
<feFlood flood-opacity="0" result="BackgroundImageFix"/>
<feColorMatrix in="SourceAlpha" type="matrix" values="0 0 0 0 0 0 0 0 0 0 0 0 0 0 0 0 0 0 127 0" result="hardAlpha"/>
<feOffset/>
<feGaussianBlur stdDeviation="3"/>
<feColorMatrix type="matrix" values="0 0 0 0 0 0 0 0 0 0 0 0 0 0 0 0 0 0 0.12 0"/>
<feBlend mode="normal" in2="BackgroundImageFix" result="effect1_dropShadow_0_1"/>
<feBlend mode="normal" in="SourceGraphic" in2="effect1_dropShadow_0_1" result="shape"/>
</filter>
</defs>
</svg>
